<?xml version="1.0" standalone="no"?>
<!DOCTYPE svg PUBLIC "-//W3C//DTD SVG 20010904//EN"
 "http://www.w3.org/TR/2001/REC-SVG-20010904/DTD/svg10.dtd">
<svg version="1.0" xmlns="http://www.w3.org/2000/svg"
 width="750.000000pt" height="750.000000pt" viewBox="0 0 750.000000 750.000000"
 preserveAspectRatio="xMidYMid meet">
<metadata>
Created by potrace 1.14, written by Peter Selinger 2001-2017
</metadata>
<g transform="translate(0.000000,750.000000) scale(0.100000,-0.100000)"
fill="#000000" stroke="none">
<path d="M0 3750 l0 -3750 763 0 762 0 2160 3741 c1188 2058 2162 3745 2163
3750 2 5 -1191 9 -2922 9 l-2926 0 0 -3750z m1228 625 c112 -192 220 -383 240
-422 20 -40 39 -73 42 -73 3 0 18 25 33 55 15 30 128 221 253 425 l226 370
134 0 c74 0 134 -2 134 -4 0 -2 -140 -224 -311 -492 -171 -269 -313 -494 -316
-500 -2 -6 33 -69 78 -140 45 -71 183 -289 307 -484 124 -195 232 -365 240
-377 l14 -23 -145 0 -146 0 -244 408 c-134 224 -249 420 -256 436 l-12 30 -43
-80 c-41 -74 -469 -770 -485 -787 -4 -4 -71 -6 -149 -5 l-142 3 335 499 c184
275 335 503 335 508 0 5 -92 156 -203 336 -208 334 -310 498 -379 610 l-38 63
147 -3 147 -3 204 -350z"/>
<path d="M5962 7433 c-22 -38 -988 -1710 -2147 -3718 -1159 -2007 -2116 -3665
-2127 -3682 l-20 -33 2916 0 2916 0 0 3750 0 3750 -750 0 -749 0 -39 -67z
m103 -2702 c474 -125 742 -609 660 -1189 -26 -181 -57 -279 -129 -411 -177
-318 -515 -485 -917 -450 -239 20 -405 94 -560 248 -198 198 -289 439 -289
771 0 220 34 379 115 545 92 187 200 306 360 396 80 45 224 94 317 108 106 16
350 6 443 -18z"/>
<path d="M5618 4525 c-249 -61 -438 -265 -510 -552 -19 -75 -22 -114 -22 -263
1 -155 4 -186 26 -271 97 -360 365 -567 708 -546 274 18 464 141 575 372 52
108 73 192 86 339 11 132 -1 305 -31 421 -67 261 -231 435 -466 495 -92 24
-277 26 -366 5z"/>
</g>
</svg>
