<?xml version="1.0" standalone="no"?>
<!DOCTYPE svg PUBLIC "-//W3C//DTD SVG 20010904//EN"
 "http://www.w3.org/TR/2001/REC-SVG-20010904/DTD/svg10.dtd">
<svg version="1.0" xmlns="http://www.w3.org/2000/svg"
 width="300.000000pt" height="300.000000pt" viewBox="0 0 300.000000 300.000000"
 preserveAspectRatio="xMidYMid meet">
<metadata>
Created by potrace 1.14, written by Peter Selinger 2001-2017
</metadata>
<g transform="translate(0.000000,300.000000) scale(0.100000,-0.100000)"
fill="#000000" stroke="none">
<path d="M0 1500 l0 -1500 569 0 c534 0 570 1 575 18 2 9 12 55 21 102 23 119
566 2476 621 2692 24 97 44 180 44 183 0 3 -412 5 -915 5 l-915 0 0 -1500z
m631 249 l124 -180 21 27 c12 14 68 95 125 180 l104 153 63 1 63 0 -19 -27
c-148 -212 -274 -397 -278 -407 -3 -8 65 -113 150 -235 86 -122 156 -224 156
-227 0 -3 -28 -4 -61 -2 l-62 3 -128 185 c-71 102 -131 184 -135 183 -3 -1
-63 -84 -133 -185 l-127 -183 -63 -3 c-35 -2 -61 1 -60 6 2 4 73 105 157 224
83 119 152 221 152 228 0 6 -65 106 -145 221 -80 116 -145 212 -145 215 0 2
27 4 59 4 l59 0 123 -181z"/>
<path d="M1866 2973 c-3 -16 -8 -48 -11 -73 -3 -25 -8 -57 -11 -72 l-6 -28
394 0 c335 0 402 -2 441 -16 54 -18 98 -66 116 -123 8 -28 11 -352 11 -1175 0
-1098 -1 -1138 -19 -1174 -22 -43 -53 -73 -98 -96 -29 -14 -108 -16 -737 -16
l-705 0 -26 -83 c-14 -45 -28 -90 -31 -99 -5 -17 43 -18 905 -18 l911 0 0
1500 0 1500 -564 0 -564 0 -6 -27z"/>
<path d="M2076 1988 c-228 -43 -376 -246 -376 -513 0 -100 15 -168 55 -252 67
-143 192 -234 344 -254 239 -30 442 103 513 336 31 98 31 252 0 350 -55 179
-191 305 -363 334 -75 13 -104 13 -173 -1z m247 -71 c181 -83 271 -266 247
-503 -26 -257 -210 -419 -455 -400 -245 18 -402 228 -382 511 12 166 91 305
211 374 102 58 274 66 379 18z"/>
<path d="M2093 1840 c-106 -22 -187 -97 -223 -210 -19 -58 -22 -86 -18 -172 3
-86 8 -113 31 -163 32 -69 75 -118 132 -148 33 -18 57 -22 135 -22 82 0 102 3
144 25 61 31 111 91 138 167 17 45 22 81 22 163 0 124 -22 196 -80 267 -61 75
-178 113 -281 93z m159 -42 c61 -18 133 -88 159 -156 19 -46 23 -77 23 -162 0
-123 -22 -195 -80 -254 -50 -51 -89 -69 -169 -74 -181 -11 -290 115 -288 333
1 168 68 278 193 316 39 11 119 10 162 -3z"/>
</g>
</svg>
